<svg id="Capa_1" enable-background="new 0 0 511.994 511.994" height="512" viewBox="0 0 511.994 511.994" width="512" xmlns="http://www.w3.org/2000/svg" xmlns:xlink="http://www.w3.org/1999/xlink"><linearGradient id="SVGID_1_" gradientUnits="userSpaceOnUse" x1="255.997" x2="255.997" y1="511.994" y2="0"><stop offset="0" stop-color="#fd5900"/><stop offset="1" stop-color="#ffde00"/></linearGradient><g><g><path d="m197.804 143.988c-5.861 5.854-5.867 15.352-.012 21.213 5.854 5.861 15.352 5.867 21.213.012 20.397-20.375 53.587-20.375 73.984 0 5.858 5.852 15.356 5.852 21.213-.012 5.855-5.861 5.85-15.359-.012-21.213-32.088-32.052-84.298-32.052-116.386 0zm-63.61-63.651c67.162-67.135 176.443-67.135 243.605 0 5.857 5.855 15.355 5.856 21.213-.004 5.856-5.859 5.854-15.356-.004-21.213-78.857-78.826-207.166-78.826-286.023 0-5.859 5.857-5.861 15.354-.004 21.213s15.353 5.86 21.213.004zm222.413 42.431c5.856-5.86 5.853-15.357-.006-21.213-55.473-55.44-145.734-55.44-201.207 0-5.859 5.856-5.862 15.354-.006 21.213s15.354 5.863 21.213.006c43.779-43.753 115.014-43.753 158.793 0 5.857 5.854 15.354 5.856 21.213-.006zm109.39 87.226h-420c-8.284 0-15 6.716-15 15v272c0 8.284 6.716 15 15 15h420c8.284 0 15-6.716 15-15v-272c0-8.284-6.716-15-15-15zm-40.549 30-169.451 145.244-169.451-145.244zm25.549 242h-390v-224.387l185.238 158.776c2.809 2.407 6.285 3.611 9.762 3.611s6.953-1.204 9.762-3.611l185.238-158.776z" fill="url(#SVGID_1_)"/></g></g></svg>