<svg xmlns="http://www.w3.org/2000/svg" width="20.006" height="20.006" viewBox="0 0 20.006 20.006">
  <path id="phone-alt-solid_6_" data-name="phone-alt-solid (6)" d="M19.435,14.143l-4.376-1.876a.938.938,0,0,0-1.094.27l-1.938,2.368A14.483,14.483,0,0,1,5.1,7.982L7.471,6.044a.935.935,0,0,0,.27-1.094L5.865.573A.944.944,0,0,0,4.791.03L.727.968A.938.938,0,0,0,0,1.882,18.129,18.129,0,0,0,18.131,20.012a.938.938,0,0,0,.914-.727l.938-4.064A.949.949,0,0,0,19.435,14.143Z" transform="translate(0 -0.006)" fill="#e27b32"/>
</svg>
